<?xml version="1.0" encoding="utf-8"?>
<!-- Generator: Adobe Illustrator 18.1.1, SVG Export Plug-In . SVG Version: 6.00 Build 0)  -->
<svg version="1.1" id="Layer_1" xmlns="http://www.w3.org/2000/svg" xmlns:xlink="http://www.w3.org/1999/xlink" x="0px" y="0px"
	 viewBox="0 0 364 109" style="enable-background:new 0 0 364 109;" xml:space="preserve">
<style type="text/css">
	.st0{fill:#324B66;}
	.st1{fill:#6A8EB3;}
	.st2{fill:#FFFFFF;}
	.st3{fill:#9DCDFC;}
</style>
<circle class="st0" cx="53.545" cy="53.927" r="53.708"/>
<rect x="52.274" y="55.343" class="st0" width="54.979" height="52.292"/>
<circle class="st1" cx="53.545" cy="53.927" r="44.375"/>
<rect x="52.837" y="53.76" class="st1" width="45.083" height="44.542"/>
<circle class="st2" cx="53.545" cy="53.927" r="35.625"/>
<rect x="52.004" y="53.01" class="st2" width="37.167" height="36.542"/>
<g>
	<path class="st0" d="M125.834,38.705c-0.509,0.631-1.063,1.104-1.664,1.418c-0.601,0.315-1.36,0.473-2.278,0.473
		c-1.258,0-2.398-0.521-3.423-1.564c-1.025-1.043-1.537-2.271-1.537-3.686s0.505-2.643,1.515-3.686
		c1.01-1.043,2.144-1.564,3.402-1.564c0.692,0,1.371,0.179,2.035,0.535c0.664,0.357,1.236,0.837,1.717,1.439l-1.06,0.818
		c-0.707-0.994-1.604-1.49-2.692-1.49c-0.918,0-1.727,0.388-2.427,1.165c-0.699,0.776-1.049,1.704-1.049,2.782
		s0.35,2.006,1.049,2.783c0.7,0.776,1.508,1.165,2.427,1.165c0.735,0,1.304-0.108,1.707-0.325c0.402-0.217,0.787-0.564,1.155-1.04
		L125.834,38.705z"/>
	<path class="st0" d="M128.293,35.346c0,1.078,0.35,2.006,1.049,2.783c0.7,0.776,1.508,1.165,2.427,1.165
		c1.018,0,1.756-0.14,2.215-0.421c0.459-0.279,0.873-0.734,1.24-1.364l1.145,0.756c-0.523,0.784-1.117,1.368-1.781,1.753
		c-0.664,0.386-1.589,0.578-2.776,0.578c-1.258,0-2.398-0.521-3.423-1.564c-1.025-1.043-1.537-2.271-1.537-3.686
		s0.505-2.643,1.515-3.686c1.01-1.043,2.144-1.564,3.402-1.564s2.392,0.521,3.402,1.564c1.01,1.043,1.516,2.271,1.516,3.686H128.293
		z M128.505,34.044h6.528c-0.24-0.771-0.665-1.403-1.271-1.901c-0.608-0.496-1.272-0.744-1.993-0.744s-1.385,0.248-1.992,0.744
		C129.169,32.641,128.745,33.274,128.505,34.044z"/>
	<path class="st0" d="M140.056,38.937v5.503h-1.441V30.432h1.441v1.303c1.003-1.093,2.162-1.639,3.476-1.639
		c1.257,0,2.392,0.521,3.402,1.564c1.01,1.043,1.516,2.271,1.516,3.686s-0.502,2.643-1.505,3.686
		c-1.003,1.043-2.127,1.564-3.37,1.564C142.26,40.596,141.087,40.043,140.056,38.937z M141.105,32.564
		c-0.699,0.776-1.049,1.704-1.049,2.782s0.35,2.006,1.049,2.783c0.699,0.776,1.508,1.165,2.427,1.165s1.728-0.389,2.427-1.165
		c0.7-0.777,1.049-1.705,1.049-2.783s-0.35-2.006-1.049-2.782c-0.699-0.777-1.508-1.165-2.427-1.165S141.804,31.786,141.105,32.564z
		"/>
	<path class="st0" d="M154.341,31.735v8.525H152.9v-8.525h-3.836v-1.303h9.114v1.303H154.341z"/>
	<path class="st0" d="M159.788,40.26v-9.828h1.441v8.211l5.341-8.211h1.78v9.828h-1.441v-8.105l-5.277,8.105H159.788z"/>
	<path class="st0" d="M177.613,30.873v-2.521h1.441v2.521c0.692-0.518,1.526-0.777,2.501-0.777c1.242,0,2.338,0.518,3.285,1.555
		c0.945,1.035,1.42,2.268,1.42,3.695c0,1.414-0.512,2.643-1.537,3.686s-2.166,1.564-3.423,1.564c-0.777,0-1.526-0.217-2.247-0.65
		v4.515h-1.441v-4.515c-0.721,0.434-1.47,0.65-2.247,0.65c-1.258,0-2.398-0.521-3.423-1.564c-1.025-1.043-1.537-2.271-1.537-3.686
		c0-1.428,0.473-2.66,1.42-3.695c0.947-1.037,2.042-1.555,3.285-1.555C176.087,30.096,176.92,30.356,177.613,30.873z
		 M177.613,38.265v-5.586c-0.636-0.854-1.47-1.28-2.501-1.28c-0.904,0-1.674,0.385-2.31,1.154c-0.636,0.77-0.954,1.701-0.954,2.793
		c0,1.078,0.35,2.006,1.049,2.783c0.7,0.776,1.508,1.165,2.427,1.165C176.157,39.294,176.92,38.951,177.613,38.265z M179.054,32.679
		v5.586c0.692,0.687,1.455,1.029,2.289,1.029c0.918,0,1.729-0.389,2.428-1.165c0.699-0.777,1.049-1.705,1.049-2.783
		c0-1.092-0.318-2.023-0.953-2.793c-0.637-0.77-1.406-1.154-2.311-1.154C180.523,31.399,179.69,31.826,179.054,32.679z"/>
	<path class="st0" d="M188.316,40.26v-9.828h1.441v8.211l5.341-8.211h1.781v9.828h-1.441v-8.105l-5.277,8.105H188.316z"/>
	<path class="st0" d="M199.55,40.26v-9.828h1.441v4.494c0.494-0.072,0.915-0.242,1.262-0.511c0.346-0.269,0.606-0.573,0.784-0.913
		c0.176-0.342,0.373-0.692,0.59-1.055c0.218-0.361,0.438-0.688,0.662-0.982c0.225-0.293,0.561-0.538,1.009-0.736
		c0.449-0.197,0.988-0.297,1.619-0.297c0,0.195,0.003,0.434,0.01,0.715s0.011,0.525,0.011,0.734c-0.445,0-0.829,0.116-1.149,0.348
		c-0.32,0.232-0.564,0.493-0.73,0.783c-0.168,0.29-0.382,0.66-0.644,1.109s-0.512,0.804-0.752,1.063
		c1.188,0.66,2.105,1.496,2.756,2.507c0.649,1.011,0.975,1.867,0.975,2.569h-1.675c0-0.199-0.046-0.445-0.138-0.736
		s-0.247-0.646-0.466-1.066c-0.22-0.42-0.569-0.844-1.05-1.27c-0.48-0.428-1.053-0.797-1.717-1.11
		c-0.452,0.159-0.904,0.259-1.356,0.298v3.885H199.55z"/>
	<path class="st0" d="M210.009,39.032c-1.024-1.043-1.536-2.271-1.536-3.686s0.505-2.643,1.516-3.686
		c1.01-1.043,2.144-1.564,3.401-1.564c1.3,0,2.459,0.546,3.477,1.639v-1.303h1.44v9.828h-1.44v-1.281
		c-1.004,1.078-2.148,1.617-3.434,1.617C212.175,40.596,211.033,40.075,210.009,39.032z M210.963,32.564
		c-0.699,0.776-1.049,1.704-1.049,2.782s0.35,2.006,1.049,2.783c0.699,0.776,1.508,1.165,2.427,1.165s1.728-0.389,2.427-1.165
		c0.699-0.777,1.05-1.705,1.05-2.783s-0.351-2.006-1.05-2.782c-0.699-0.777-1.508-1.165-2.427-1.165S211.662,31.786,210.963,32.564z
		"/>
	<path class="st0" d="M230.748,38.958v3.024h-1.441V40.26h-8.33v-9.828h1.441v8.526h5.681v-8.526h1.441v8.526H230.748z"/>
	<path class="st0" d="M232.676,40.26v-9.828h1.441v8.211l5.341-8.211h1.781v9.828h-1.441v-8.105l-5.277,8.105H232.676z"/>
	<path class="st0" d="M244.831,39.032c-1.024-1.043-1.536-2.271-1.536-3.686s0.505-2.643,1.516-3.686
		c1.01-1.043,2.144-1.564,3.401-1.564s2.392,0.521,3.402,1.564c1.01,1.043,1.515,2.271,1.515,3.686s-0.501,2.643-1.505,3.686
		c-1.003,1.043-2.126,1.564-3.369,1.564C246.997,40.596,245.855,40.075,244.831,39.032z M245.785,32.564
		c-0.699,0.776-1.049,1.704-1.049,2.782s0.35,2.006,1.049,2.783c0.699,0.776,1.508,1.165,2.427,1.165s1.728-0.389,2.427-1.165
		c0.699-0.777,1.05-1.705,1.05-2.783s-0.351-2.006-1.05-2.782c-0.699-0.777-1.508-1.165-2.427-1.165S246.484,31.786,245.785,32.564z
		"/>
	<path class="st0" d="M255.185,40.26v-9.828h1.441v4.074h5.681v-4.074h1.441v9.828h-1.441v-4.452h-5.681v4.452H255.185z"/>
	<path class="st0" d="M266.418,40.26v-9.828h1.441v4.074h5.681v-4.074h1.441v9.828h-1.441v-4.452h-5.681v4.452H266.418z"/>
	<path class="st0" d="M277.651,40.26v-9.828h1.441v3.318h1.817c1.38,0,2.485,0.279,3.315,0.84c0.831,0.561,1.247,1.365,1.247,2.415
		s-0.409,1.854-1.226,2.415c-0.817,0.561-1.917,0.84-3.298,0.84H277.651z M279.093,35.052v3.906h1.823
		c0.933,0,1.66-0.165,2.183-0.493c0.522-0.33,0.784-0.816,0.784-1.46s-0.262-1.13-0.784-1.46c-0.522-0.328-1.25-0.493-2.183-0.493
		H279.093z M286.851,40.26v-9.828h1.441v9.828H286.851z"/>
	<path class="st0" d="M290.962,40.26v-9.828h1.441v8.211l5.341-8.211h1.781v9.828h-1.441v-8.105l-5.277,8.105H290.962z
		 M295.498,28.353h-0.551c-0.849,0-1.541-0.126-2.077-0.378c-0.537-0.252-0.806-0.58-0.806-0.986c0-0.28,0.148-0.588,0.445-0.924
		h0.826c-0.085,0.224-0.127,0.412-0.127,0.566c0,0.518,0.579,0.777,1.738,0.777h0.551c1.158,0,1.738-0.26,1.738-0.777
		c0-0.154-0.043-0.343-0.128-0.566h0.827c0.297,0.336,0.445,0.644,0.445,0.924c0,0.406-0.269,0.734-0.806,0.986
		S296.346,28.353,295.498,28.353z"/>
	<path class="st0" d="M316.693,38.958v3.024h-1.441V40.26h-8.33v-9.828h1.441v8.526h5.681v-8.526h1.441v8.526H316.693z"/>
	<path class="st0" d="M319.258,35.346c0,1.078,0.35,2.006,1.049,2.783c0.699,0.776,1.508,1.165,2.427,1.165
		c1.018,0,1.756-0.14,2.215-0.421c0.459-0.279,0.872-0.734,1.24-1.364l1.145,0.756c-0.523,0.784-1.116,1.368-1.78,1.753
		c-0.665,0.386-1.59,0.578-2.776,0.578c-1.258,0-2.399-0.521-3.424-1.564s-1.536-2.271-1.536-3.686s0.505-2.643,1.516-3.686
		c1.01-1.043,2.144-1.564,3.401-1.564s2.392,0.521,3.402,1.564c1.01,1.043,1.515,2.271,1.515,3.686H319.258z M319.47,34.044h6.527
		c-0.24-0.771-0.664-1.403-1.271-1.901c-0.607-0.496-1.271-0.744-1.992-0.744s-1.385,0.248-1.992,0.744
		C320.134,32.641,319.71,33.274,319.47,34.044z"/>
	<path class="st0" d="M329.579,40.26v-9.828h1.441v4.074h5.681v-4.074h1.441v9.828h-1.441v-4.452h-5.681v4.452H329.579z"/>
	<path class="st0" d="M345.03,31.735v8.525h-1.441v-8.525h-3.836v-1.303h9.114v1.303H345.03z"/>
	<path class="st0" d="M351.919,38.937v5.503h-1.441V30.432h1.441v1.303c1.003-1.093,2.162-1.639,3.477-1.639
		c1.257,0,2.391,0.521,3.401,1.564c1.01,1.043,1.516,2.271,1.516,3.686s-0.502,2.643-1.505,3.686
		c-1.004,1.043-2.127,1.564-3.37,1.564C354.123,40.596,352.95,40.043,351.919,38.937z M352.968,32.564
		c-0.699,0.776-1.049,1.704-1.049,2.782s0.35,2.006,1.049,2.783c0.7,0.776,1.509,1.165,2.428,1.165c0.918,0,1.727-0.389,2.427-1.165
		c0.699-0.777,1.049-1.705,1.049-2.783s-0.35-2.006-1.049-2.782c-0.7-0.777-1.509-1.165-2.427-1.165
		C354.477,31.399,353.668,31.786,352.968,32.564z"/>
</g>
<g>
	<path class="st0" d="M139.417,49.344v58.291h-8.759V56.958h-4.875v50.677h-8.759V49.344H139.417z"/>
	<path class="st0" d="M144.044,107.635V49.344h9.172c4.847,0,8.346,0.915,10.494,2.743c2.148,1.829,3.223,4.707,3.223,8.637v12.608
		c0,2.402-0.303,4.367-0.909,5.895c-0.607,1.528-1.501,2.742-2.686,3.643c-1.185,0.9-2.658,1.529-4.421,1.884
		c-1.763,0.355-3.801,0.531-6.114,0.531v22.351H144.044z M152.803,78.326c0.661,0,1.308-0.027,1.942-0.082
		c0.632-0.054,1.198-0.177,1.694-0.369c0.496-0.19,0.909-0.45,1.239-0.777s0.496-0.79,0.496-1.392V61.87
		c0-1.363-0.111-2.415-0.33-3.152c-0.221-0.736-0.566-1.281-1.033-1.637c-0.469-0.354-1.033-0.573-1.694-0.655
		s-1.433-0.123-2.313-0.123V78.326z"/>
	<path class="st0" d="M171.559,58.023c0-1.91,0.344-3.492,1.033-4.749c0.688-1.255,1.57-2.264,2.644-3.029
		c1.074-0.764,2.299-1.296,3.677-1.596c1.376-0.3,2.727-0.45,4.049-0.45c1.376,0,2.739,0.15,4.09,0.45
		c1.349,0.3,2.574,0.832,3.677,1.596c1.102,0.766,1.996,1.774,2.686,3.029c0.688,1.257,1.033,2.839,1.033,4.749v40.935
		c0,1.911-0.345,3.493-1.033,4.748c-0.689,1.256-1.584,2.266-2.686,3.029c-1.103,0.765-2.328,1.296-3.677,1.597
		c-1.351,0.299-2.714,0.45-4.09,0.45c-1.322,0-2.673-0.151-4.049-0.45c-1.377-0.301-2.603-0.832-3.677-1.597
		c-1.074-0.764-1.956-1.773-2.644-3.029c-0.689-1.255-1.033-2.837-1.033-4.748V58.023z M180.317,98.22
		c0,1.474,0.219,2.443,0.661,2.906c0.44,0.465,1.128,0.696,2.065,0.696c0.881,0,1.542-0.231,1.983-0.696
		c0.44-0.463,0.661-1.433,0.661-2.906V58.759c0-1.473-0.221-2.442-0.661-2.906c-0.441-0.463-1.103-0.696-1.983-0.696
		c-0.938,0-1.625,0.233-2.065,0.696c-0.442,0.464-0.661,1.434-0.661,2.906V98.22z"/>
	<path class="st0" d="M212.046,49.344l2.81,24.07c0.109,0.818,0.248,1.924,0.413,3.315s0.316,2.935,0.454,4.625
		c0.137,1.692,0.261,3.426,0.372,5.199c0.109,1.774,0.165,3.452,0.165,5.035h0.413c0.055-1.527,0.11-3.111,0.166-4.749
		c0.054-1.637,0.109-3.246,0.165-4.83c0.054-1.582,0.124-3.111,0.206-4.585c0.083-1.474,0.179-2.783,0.29-3.93l2.396-24.151h12.973
		v58.291h-7.685V80.783c0-1.691,0.014-3.615,0.042-5.772c0.026-2.155,0.054-4.243,0.082-6.263c0.027-2.019,0.068-3.819,0.124-5.403
		c0.055-1.582,0.083-2.674,0.083-3.274h-0.331c-0.11,1.092-0.276,2.729-0.495,4.912c-0.221,2.184-0.441,4.435-0.661,6.754
		c-0.221,2.32-0.428,4.503-0.62,6.55c-0.193,2.046-0.317,3.452-0.372,4.216l-3.057,25.134h-8.015l-3.141-28.081
		c-0.165-1.474-0.345-3.083-0.537-4.83c-0.193-1.746-0.371-3.507-0.537-5.28c-0.165-1.773-0.33-3.466-0.495-5.076
		c-0.166-1.609-0.331-3.042-0.496-4.298h-0.33c0,0.382,0.026,1.051,0.082,2.006c0.055,0.955,0.096,2.02,0.124,3.192
		c0.027,1.175,0.055,2.32,0.083,3.438c0.026,1.119,0.041,2.034,0.041,2.743v36.186h-7.685V49.344H212.046z"/>
	<path class="st0" d="M237.495,58.023c0-1.91,0.344-3.492,1.033-4.749c0.688-1.255,1.569-2.264,2.644-3.029
		c1.074-0.764,2.3-1.296,3.678-1.596c1.376-0.3,2.727-0.45,4.049-0.45c1.376,0,2.739,0.15,4.09,0.45
		c1.349,0.3,2.574,0.832,3.677,1.596c1.102,0.766,1.996,1.774,2.686,3.029c0.688,1.257,1.033,2.839,1.033,4.749v40.935
		c0,1.911-0.345,3.493-1.033,4.748c-0.689,1.256-1.584,2.266-2.686,3.029c-1.103,0.765-2.328,1.296-3.677,1.597
		c-1.351,0.299-2.714,0.45-4.09,0.45c-1.322,0-2.673-0.151-4.049-0.45c-1.378-0.301-2.604-0.832-3.678-1.597
		c-1.074-0.764-1.956-1.773-2.644-3.029c-0.689-1.255-1.033-2.837-1.033-4.748V58.023z M246.254,98.22
		c0,1.474,0.22,2.443,0.661,2.906c0.44,0.465,1.128,0.696,2.065,0.696c0.881,0,1.542-0.231,1.983-0.696
		c0.44-0.463,0.661-1.433,0.661-2.906V58.759c0-1.473-0.221-2.442-0.661-2.906c-0.441-0.463-1.103-0.696-1.983-0.696
		c-0.938,0-1.625,0.233-2.065,0.696c-0.441,0.464-0.661,1.434-0.661,2.906V98.22z"/>
	<path class="st1" d="M287.815,49.344v7.614h-7.685v50.677h-8.759V56.958h-7.685v-7.614H287.815z"/>
	<path class="st1" d="M310.62,49.344v7.614h-10.741v14.736h10.328v7.614h-10.328v20.712h10.907v7.614H291.12V49.344H310.62z"/>
	<path class="st1" d="M328.973,70.63V58.759c0-1.473-0.221-2.442-0.661-2.906c-0.441-0.463-1.103-0.696-1.983-0.696
		c-0.938,0-1.625,0.233-2.065,0.696c-0.441,0.464-0.661,1.434-0.661,2.906V98.22c0,1.474,0.22,2.443,0.661,2.906
		c0.44,0.465,1.128,0.696,2.065,0.696c0.881,0,1.542-0.231,1.983-0.696c0.44-0.463,0.661-1.433,0.661-2.906V85.613h8.759v13.345
		c0,1.911-0.345,3.493-1.033,4.748c-0.689,1.256-1.584,2.266-2.686,3.029c-1.103,0.765-2.328,1.296-3.677,1.597
		c-1.351,0.299-2.714,0.45-4.09,0.45c-1.322,0-2.673-0.151-4.049-0.45c-1.378-0.301-2.604-0.832-3.678-1.597
		c-1.074-0.764-1.956-1.773-2.644-3.029c-0.689-1.255-1.033-2.837-1.033-4.748V58.023c0-1.91,0.344-3.492,1.033-4.749
		c0.688-1.255,1.569-2.264,2.644-3.029c1.074-0.764,2.3-1.296,3.678-1.596c1.376-0.3,2.727-0.45,4.049-0.45
		c1.376,0,2.739,0.15,4.09,0.45c1.349,0.3,2.574,0.832,3.677,1.596c1.102,0.766,1.996,1.774,2.686,3.029
		c0.688,1.257,1.033,2.839,1.033,4.749V70.63H328.973z"/>
	<path class="st1" d="M364.163,49.344v7.614h-7.685v50.677h-8.759V56.958h-7.685v-7.614H364.163z"/>
</g>
<circle class="st3" cx="53.545" cy="53.927" r="25"/>
<rect x="52.274" y="53.26" class="st3" width="26.271" height="25.667"/>
</svg>
